<svg width="85" height="146" viewBox="0 0 85 146" fill="none" xmlns="http://www.w3.org/2000/svg">
<path fill-rule="evenodd" clip-rule="evenodd" d="M63.402 0.260742H22.668V8.98941H12.8462C6.21877 8.98941 0.846185 14.362 0.846186 20.9894L0.846191 133.739C0.846191 140.367 6.21877 145.739 12.8462 145.739H73C79.6274 145.739 85 140.367 85 133.739L84.9999 20.9894C84.9999 14.362 79.6274 8.98941 73 8.98941H63.402V0.260742ZM5.84619 133.739L5.84619 20.9894C5.84619 17.1234 8.98019 13.9894 12.8462 13.9894L73 13.9894C76.8659 13.9894 79.9999 17.1234 79.9999 20.9894L80 133.739C80 137.605 76.866 140.739 73 140.739H12.8462C8.9802 140.739 5.84619 137.605 5.84619 133.739Z" fill="#A7A9AC"/>
</svg>
