<svg width="116" height="84" viewBox="0 0 116 84" fill="none" xmlns="http://www.w3.org/2000/svg">
<path d="M85 1.84453V52.1555C85 53.175 84.1752 54 83.1558 54H81.2839C62.2845 51.8627 64.6351 31.4532 64.6351 31.4532C54.004 42.9435 62.1862 52.7411 63.3273 54H48.7813C47.4244 31.3527 66.6011 26.2936 66.6011 26.2936C70.7467 16.2588 82.3075 15.1794 82.5554 15.1516C82.1023 15.1516 44.7169 15.2692 32.6262 53.9914C31.6988 53.8824 31 53.0938 31 52.1597V1.84453C31 0.827152 31.8249 0 32.8442 0H83.1537C84.173 0 84.9979 0.822878 85 1.84239V1.84453Z" fill="white"/>
<path d="M0 83.6314V67.0588H3.68279V80.3169H11.5087V83.6314H0Z" fill="white"/>
<path d="M14.9376 66.0001C15.2033 65.9975 15.4664 66.052 15.709 66.1599C15.9399 66.2631 16.151 66.4078 16.3305 66.586C16.5094 66.7656 16.6534 66.976 16.756 67.2075C16.971 67.6994 16.971 68.2578 16.756 68.7497C16.6514 68.9831 16.5074 69.1975 16.3305 69.3823C16.1549 69.5658 15.9432 69.7105 15.709 69.8085C15.4644 69.9098 15.202 69.9604 14.9376 69.9578C13.8525 69.9657 12.966 69.0923 12.9581 68.0072C12.9581 67.9973 12.9581 67.9881 12.9581 67.9783C12.9562 67.7152 13.0074 67.4548 13.1081 67.2121C13.2047 66.9773 13.3501 66.7656 13.5336 66.5907C13.7184 66.4118 13.9327 66.2664 14.1669 66.1599C14.4095 66.052 14.6719 65.9975 14.9376 66.0001ZM13.2113 71.202H16.6639V83.6314H13.2113V71.202Z" fill="white"/>
<path d="M19.0578 77.4167C19.0518 76.5427 19.2123 75.6759 19.5293 74.8618C19.8305 74.0844 20.2803 73.3729 20.8531 72.7672C21.4299 72.1622 22.1237 71.6808 22.8918 71.3519C24.5648 70.6621 26.4431 70.6634 28.1154 71.3552C28.8836 71.6847 29.5774 72.1661 30.1541 72.7705C30.7263 73.3768 31.1761 74.0877 31.4773 74.8651C31.7949 75.6792 31.9548 76.546 31.9495 77.42V83.6347H28.4969V77.42C28.4989 76.9636 28.4324 76.5098 28.2996 76.0738C28.1812 75.6733 27.9846 75.3004 27.7209 74.9769C27.4631 74.6665 27.1408 74.4152 26.7771 74.2403C25.9656 73.872 25.0337 73.872 24.2222 74.2403C23.8585 74.4152 23.5363 74.6665 23.2785 74.9769C23.0168 75.2998 22.8208 75.672 22.7031 76.0705C22.5702 76.5065 22.5038 76.9603 22.5058 77.4167V83.6314H19.0532L19.0578 77.4167Z" fill="white"/>
<path d="M47.116 67.0588V83.6314H43.8936V82.1583C43.4832 82.7225 42.9472 83.1835 42.3284 83.5051C41.6964 83.8353 40.9927 84.0049 40.2798 83.9997C39.3683 84.0043 38.4641 83.8287 37.621 83.4821C35.9993 82.8277 34.6952 81.569 33.9842 79.9716C33.2635 78.3446 33.2635 76.4887 33.9842 74.8617C35.0963 72.3982 37.5539 70.8199 40.2568 70.8337C40.8895 70.8291 41.5182 70.9422 42.1094 71.1678C42.6776 71.3861 43.2037 71.7011 43.6634 72.0997V67.0588H47.116ZM36.8963 77.4167C36.8937 77.8797 36.9877 78.3387 37.1725 78.7635C37.5217 79.5876 38.178 80.2439 39.002 80.5931C39.8629 80.9627 40.8375 80.9627 41.6984 80.5931C42.5231 80.2445 43.1794 79.5882 43.5286 78.7635C43.8969 77.9033 43.8969 76.9307 43.5286 76.0705C43.18 75.2458 42.5231 74.5888 41.6984 74.2403C40.8375 73.8707 39.8629 73.8707 39.002 74.2403C38.1774 74.5895 37.521 75.2458 37.1725 76.0705C36.9877 76.4953 36.8937 76.9537 36.8963 77.4167Z" fill="white"/>
<path d="M56.2533 70.8337C58.9667 70.8015 61.4408 72.3844 62.5489 74.8617C63.2697 76.4887 63.2697 78.3446 62.5489 79.9716C61.4342 82.4437 58.9647 84.024 56.2533 83.9997C55.5299 84.0069 54.817 83.8287 54.1817 83.4821C53.5642 83.1474 53.0355 82.6699 52.6396 82.0892V83.6314H49.4171V67.0588H52.8697V72.2378C53.309 71.7971 53.8286 71.446 54.4007 71.202C54.9867 70.9547 55.6173 70.8291 56.2533 70.8337ZM56.1875 80.8693C56.6505 80.8719 57.1095 80.7779 57.5344 80.5931C58.3584 80.2439 59.0147 79.5876 59.3639 78.7635C59.7322 77.9033 59.7322 76.9307 59.3639 76.0705C59.0154 75.2458 58.3591 74.5895 57.5344 74.2403C56.6735 73.8707 55.6989 73.8707 54.838 74.2403C54.0134 74.5888 53.3564 75.2458 53.0078 76.0705C52.6396 76.9307 52.6396 77.9033 53.0078 78.7635C53.357 79.5882 54.0134 80.2445 54.838 80.5931C55.2629 80.7779 55.7213 80.8719 56.1842 80.8693H56.1875Z" fill="white"/>
<path d="M77.7285 77.4168C77.7337 78.2974 77.5489 79.1687 77.1872 79.9717C76.8354 80.7582 76.3349 81.4692 75.7141 82.0663C75.0841 82.6707 74.3469 83.1507 73.5393 83.4822C71.8261 84.1721 69.9124 84.1721 68.1993 83.4822C67.3917 83.1507 66.6538 82.6707 66.0238 82.0663C65.4023 81.4692 64.9012 80.7576 64.5487 79.9704C63.8279 78.3434 63.8279 76.4875 64.5487 74.8605C64.9012 74.0746 65.401 73.3631 66.0218 72.7659C66.6532 72.1635 67.3917 71.6848 68.1993 71.3553C69.9124 70.6641 71.8261 70.6641 73.5393 71.3553C74.3462 71.6868 75.0841 72.1668 75.7141 72.7705C76.3349 73.3677 76.8347 74.0792 77.1872 74.8651C77.5483 75.6668 77.7331 76.5375 77.7285 77.4168ZM74.2759 77.4168C74.2792 76.9551 74.1897 76.4974 74.0128 76.0706C73.8458 75.6622 73.5998 75.2906 73.2894 74.9769C72.977 74.6665 72.6107 74.4173 72.2076 74.2404C71.3559 73.8721 70.3892 73.8721 69.5376 74.2404C69.1344 74.4166 68.7675 74.6665 68.4557 74.9769C68.1447 75.2906 67.8994 75.6622 67.7323 76.0706C67.3798 76.9334 67.3798 77.9008 67.7323 78.7636C67.8994 79.172 68.1447 79.5436 68.4557 79.8566C68.7675 80.167 69.1344 80.4169 69.5376 80.5932C70.3892 80.9615 71.3559 80.9615 72.2076 80.5932C72.6107 80.4169 72.9777 80.167 73.2894 79.8566C73.5998 79.5436 73.8458 79.172 74.0128 78.7636C74.1897 78.3368 74.2792 77.8791 74.2759 77.4168Z" fill="white"/>
<path d="M85.4847 70.8337C88.1981 70.8015 90.6722 72.3845 91.7803 74.8618C92.142 75.6648 92.3261 76.5361 92.3209 77.4167V83.6314H89.0984V82.0893C88.7025 82.67 88.1738 83.1474 87.5563 83.4821C86.921 83.8287 86.2081 84.0069 85.4847 83.9997C84.5732 84.0043 83.6696 83.8287 82.8265 83.4821C81.2048 82.8284 79.9 81.5697 79.1898 79.9717C78.4683 78.3446 78.4683 76.4888 79.1898 74.8618C79.9 73.2637 81.2041 72.005 82.8265 71.352C83.6696 71.0054 84.5732 70.8291 85.4847 70.8337ZM85.5537 80.8693C86.0167 80.872 86.4758 80.7779 86.9006 80.5931C87.7246 80.2439 88.3809 79.5876 88.7301 78.7636C89.0984 77.9034 89.0984 76.9307 88.7301 76.0705C88.3816 75.2458 87.7253 74.5895 86.9006 74.2403C86.0397 73.8707 85.0651 73.8707 84.2043 74.2403C83.3796 74.5889 82.7226 75.2458 82.3741 76.0705C82.0058 76.9307 82.0058 77.9034 82.3741 78.7636C82.7233 79.5882 83.3796 80.2446 84.2043 80.5931C84.6298 80.7786 85.0895 80.8726 85.5537 80.8693Z" fill="white"/>
<path d="M94.3925 77.4167C94.3866 76.5427 94.547 75.6759 94.864 74.8617C95.1659 74.0844 95.6157 73.3735 96.1878 72.7672C96.7646 72.1621 97.4584 71.6807 98.2265 71.3519C99.0519 70.9994 99.9417 70.8232 100.839 70.8337H101.299V73.9641C100.836 73.9614 100.378 74.0555 99.9528 74.2403C99.1282 74.5888 98.4712 75.2458 98.1226 76.0705C97.9378 76.4953 97.8438 76.9537 97.8464 77.4167V83.6314H94.3938L94.3925 77.4167Z" fill="white"/>
<path d="M115.779 67.0588V83.6314H112.557V82.1583C112.146 82.7225 111.61 83.1835 110.991 83.5051C110.359 83.8353 109.656 84.0049 108.943 83.9997C108.031 84.0043 107.127 83.8287 106.284 83.4821C104.662 82.8277 103.358 81.569 102.647 79.9716C101.926 78.3446 101.926 76.4887 102.647 74.8617C103.759 72.3982 106.216 70.8199 108.919 70.8337C109.552 70.8291 110.18 70.9422 110.772 71.1678C111.341 71.3861 111.867 71.7011 112.326 72.0997V67.0588H115.779ZM105.559 77.4167C105.557 77.8797 105.651 78.3387 105.835 78.7635C106.185 79.5876 106.841 80.2439 107.665 80.5931C108.525 80.9614 109.498 80.9614 110.358 80.5931C111.182 80.2439 111.838 79.5876 112.188 78.7635C112.557 77.9033 112.557 76.9307 112.188 76.0705C111.839 75.2458 111.183 74.5895 110.358 74.2403C109.498 73.872 108.525 73.872 107.665 74.2403C106.84 74.5895 106.184 75.2458 105.835 76.0705C105.649 76.4947 105.555 76.9537 105.556 77.4167H105.559Z" fill="white"/>
</svg>
