<svg width="113" height="94" viewBox="0 0 113 94" fill="none" xmlns="http://www.w3.org/2000/svg">
<path fill-rule="evenodd" clip-rule="evenodd" d="M47.9698 5.12235C51.8962 -1.07529 60.9381 -1.07529 64.8646 5.12235L111.003 77.9481C115.221 84.6062 110.437 93.2999 102.555 93.2999H56.4172H10.2791C2.39726 93.2999 -2.38648 84.6062 1.83171 77.9481L47.9698 5.12235ZM51.2399 29.8851C51.2399 27.0994 53.4982 24.8411 56.2839 24.8411C59.0696 24.8411 61.3279 27.0994 61.3279 29.8851V58.8883C61.3279 61.674 59.0696 63.9323 56.2839 63.9323C53.4982 63.9323 51.2399 61.674 51.2399 58.8883V29.8851ZM51.2399 74.0204C51.2399 71.2346 53.4982 68.9763 56.2839 68.9763C59.0696 68.9763 61.3279 71.2346 61.3279 74.0204C61.3279 76.8061 59.0696 79.0644 56.2839 79.0644C53.4982 79.0644 51.2399 76.8061 51.2399 74.0204Z" fill="#E65F5C"/>
</svg>
