<svg width="115" height="19" viewBox="0 0 115 19" shape-rendering="crispEdges" xmlns="http://www.w3.org/2000/svg">
	<rect width="100%" height="100%" fill="black" />
	<path fill="white"
		d="m115.11,8.48h-10.69c-.07,0-.13-.06-.14-.13-.53-5.17-4.68-8.35-10.55-8.35h-8.98v8.34c0,.08-.06.14-.14.14h-11.65c-.08,0-.14-.06-.14-.14V0h-5.27v8.12c0,.2-.16.36-.36.36h-.79c-.13,0-.24-.06-.32-.15L59.15,0h-4.42v8.34c0,.08-.06.14-.14.14h-11.68c-.08,0-.14-.06-.14-.14V0h-5.37v8.34c0,.08-.06.14-.14.14h-19.03c-.08,0-.14-.06-.14-.14V0h-5.37v8.34c0,.08-.06.14-.14.14H0v2.03h12.55c.08,0,.14.06.14.14v8.34h14.44v-4.26h-9.06v-4.08c0-.08.06-.14.14-.14h19.03c.08,0,.14.06.14.14v8.34h5.37v-8.34c0-.08.06-.14.14-.14h11.68c.08,0,.14.06.14.14v8.34h5.27v-8.12c0-.2.16-.36.36-.36h.79c.13,0,.24.06.32.15l6.9,8.33h4.42v-8.34c0-.08.06-.14.14-.14h11.65c.08,0,.14.06.14.14v8.34h8.98c5.87,0,10.02-3.19,10.55-8.35,0-.07.07-.13.14-.13h10.69v-2.03h0Zm-21.6,6.23h-3.39v-4.05c0-.08.06-.14.14-.14h8.4c.09,0,.16.08.14.17-.47,2.55-2.47,4.02-5.29,4.02h0Zm5.15-6.23h-8.4c-.08,0-.14-.06-.14-.14v-4.05h3.39c2.82,0,4.83,1.47,5.29,4.02.02.09-.05.17-.14.17h0Z" />
</svg>