<svg width="20" height="26" viewBox="0 0 20 26" fill="none" xmlns="http://www.w3.org/2000/svg"
    shape-rendering="crispEdges">
    <rect width="100%" height="100%" fill="black" />
    <path
        d="M15.4669 7.09863L14.1565 9.05502C16.1334 10.4024 17.4344 12.6817 17.4344 15.2613C17.4344 19.3912 14.0994 22.7507 9.99948 22.7507C5.89959 22.7507 2.5655 19.3903 2.5655 15.2613C2.5655 12.7091 3.84027 10.4524 5.78055 9.0994L4.44953 7.15623C1.89812 8.93605 0.222168 11.9046 0.222168 15.2613C0.222168 20.6923 4.60888 25.1112 10.0004 25.1112C15.3919 25.1112 19.7787 20.6923 19.7787 15.2613C19.7787 11.8687 18.0671 8.8709 15.4679 7.09863H15.4669Z"
        fill="white" />
    <path d="M10.0005 0.666748L6.87354 4.84579H8.66853V15.4482H10.0005H11.3315V4.84579H13.1265L10.0005 0.666748Z"
        fill="white" />
</svg>