<svg width="45" height="153" viewBox="0 0 45 153" fill="none" xmlns="http://www.w3.org/2000/svg"
    shape-rendering="crispEdges">
    <g>
        <!-- #545454: hsl(0, 0%, 33%) -->
        <!-- #a8a8a8: hsl(0, 0%, 66%) -->
        <!-- #ffffff: hsl(0, 0%, 100%) -->
        <rect width="100%" height="100%" fill="black" />
        <path
            d="M3.36301e-06 81.7077V69.6467C0.126735 69.6062 0.116597 69.5001 0.126735 69.399C0.197705 68.8227 0.16729 68.2515 0.16222 67.6753C0.16222 66.3711 0.223052 65.072 0.283883 63.7729C0.344714 62.4535 0.395407 61.1342 0.496793 59.8149C0.542416 59.1931 0.506931 58.5612 0.618456 57.9445C0.648871 57.7878 0.638733 57.621 0.653941 57.4643C0.714772 56.7617 0.760395 56.054 0.836435 55.3564C0.902335 54.7347 0.93782 54.1129 1.00372 53.4861C1.06455 52.8947 1.12031 52.3033 1.17608 51.7068C1.22677 51.1962 1.25718 50.6806 1.32815 50.1701C1.39912 49.6494 1.44982 49.1288 1.4853 48.6031C1.52586 48.0268 1.61203 47.4607 1.65259 46.8844C1.683 46.4648 1.72863 46.0402 1.77932 45.6207C1.88071 44.8018 1.99223 43.9778 2.09869 43.1589C2.18993 42.4714 2.28625 41.7789 2.38257 41.0915C2.48902 40.3231 2.60561 39.5548 2.71207 38.7864C2.76276 38.4376 2.78811 38.0787 2.86922 37.7451C2.95032 37.4064 2.95539 37.0576 3.06185 36.719C3.19872 36.2792 3.20886 35.8141 3.30011 35.3592C3.38628 34.9295 3.4826 34.4998 3.53836 34.0702C3.58905 33.686 3.73099 33.3119 3.70058 32.9126C3.70058 32.8924 3.70058 32.8722 3.70565 32.8519C3.89321 32.3869 3.9287 31.8814 4.01994 31.3961C4.11626 30.9058 4.22778 30.4155 4.31903 29.9201C4.35452 29.7128 4.37986 29.4854 4.46097 29.2832C4.56236 29.0203 4.56743 28.7372 4.64853 28.4693C4.7043 28.2823 4.7195 28.0801 4.77527 27.888C4.89693 27.4583 5.02366 27.0287 5.11998 26.594C5.20616 26.2047 5.32275 25.8206 5.39879 25.4313C5.44948 25.1735 5.58128 24.9461 5.62184 24.6883C5.66746 24.39 5.75871 24.1019 5.86009 23.8239C6.08314 23.192 6.24536 22.545 6.44813 21.9081C6.70666 21.0942 6.96013 20.2753 7.21866 19.4615C7.30484 19.1936 7.46705 18.956 7.52282 18.683C7.57858 18.41 7.68503 18.1522 7.77121 17.8894C7.89794 17.4951 8.01961 17.0958 8.18689 16.7116C8.37952 16.2617 8.55188 15.8068 8.71917 15.3468C8.88645 14.8767 9.08922 14.4217 9.26158 13.9516C9.46435 13.3855 9.74316 12.8395 9.97128 12.2784C10.2146 11.6769 10.4934 11.0905 10.7469 10.4941C10.899 10.4789 11.0308 10.4233 11.1626 10.3424C12.0193 9.80658 12.8709 9.27076 13.7327 8.7501C14.6806 8.1789 15.6894 7.74923 16.7793 7.5066C17.7019 7.29934 18.6347 7.21847 19.5725 7.18814C21.4025 7.12748 23.2325 7.16286 25.0625 7.16792C25.3667 7.16792 25.6658 7.19825 25.9699 7.22352C26.2335 7.24374 26.4971 7.25385 26.7506 7.31451C27.1004 7.39539 27.4502 7.4611 27.7949 7.54703C28.3069 7.68352 28.8087 7.84527 29.3055 8.0222C29.4829 8.08791 29.6249 8.22439 29.8023 8.30022C30.3498 8.54791 30.8871 8.82087 31.3941 9.14944C31.5613 9.26065 31.7438 9.34658 31.9061 9.4679C32.195 9.68526 32.4941 9.87735 32.8185 10.0341C32.9351 10.0897 33.0669 10.1402 33.1582 10.2261C33.2798 10.3373 33.4218 10.3576 33.5739 10.3677C33.7107 10.6912 33.8375 11.0198 33.9946 11.3382C34.4103 12.2026 34.7803 13.0822 35.1453 13.9718C35.6928 15.3063 36.2099 16.6509 36.7067 18.0057C36.9956 18.7993 37.2694 19.598 37.5431 20.3966C37.9081 21.4632 38.2122 22.55 38.5722 23.6217C38.8358 24.4052 39.0284 25.2089 39.2616 25.9975C39.3934 26.4373 39.4694 26.8973 39.5962 27.337C40.0017 28.7423 40.2957 30.1728 40.5999 31.5983C40.7215 32.1594 40.8077 32.7256 40.9192 33.2867C41.0865 34.1056 41.2335 34.9245 41.4059 35.7434C41.558 36.4713 41.6746 37.2042 41.8013 37.9372C41.8773 38.3719 41.9635 38.8117 42.0294 39.2464C42.1815 40.2321 42.3336 41.2178 42.4755 42.2086C42.6377 43.346 42.7999 44.4833 42.947 45.6257C43.0382 46.3334 43.1092 47.0462 43.1903 47.7589C43.246 48.2593 43.3271 48.7598 43.3576 49.2602C43.388 49.7657 43.464 50.2611 43.5198 50.7615C43.5806 51.3529 43.6566 51.9444 43.7175 52.5358C43.8087 53.4608 43.905 54.3808 43.9963 55.3059C44.0926 56.3118 44.1687 57.3127 44.2903 58.3186C44.3106 58.4905 44.341 58.6623 44.341 58.8292C44.3359 59.6177 44.4424 60.4012 44.4931 61.1847C44.5387 61.948 44.5742 62.7164 44.6452 63.4797C44.7313 64.3946 44.6908 65.3146 44.7567 66.2296C44.8479 67.4478 44.8327 68.6711 44.8783 69.8893C44.9341 71.2491 44.9595 72.6139 44.9544 73.9787C44.9544 75.1919 44.924 76.4 44.9696 77.6132C45.0304 79.1095 44.9797 80.6007 44.9544 82.0969C44.9088 84.3666 44.9747 86.6413 44.9037 88.911C44.8581 90.3718 44.8175 91.8378 44.7871 93.2986C44.7567 94.6028 44.706 95.9019 44.6452 97.201C44.6147 97.8379 44.5995 98.4698 44.5742 99.1067C44.5387 100.012 44.4677 100.921 44.412 101.826C44.3917 102.14 44.3461 102.448 44.3511 102.761C44.3511 103.611 44.2548 104.455 44.2041 105.299C44.1585 106.062 44.1281 106.831 44.0368 107.594C43.9811 108.064 44.0064 108.539 43.9456 109.014C43.8696 109.616 43.8138 110.217 43.753 110.819C43.6668 111.633 43.5806 112.442 43.4843 113.255C43.3626 114.251 43.2004 115.247 43.0635 116.243C42.9368 117.158 42.8152 118.073 42.658 118.978C42.5161 119.796 42.4197 120.626 42.2727 121.439C42.07 122.577 41.9078 123.714 41.6847 124.846C41.5073 125.741 41.3603 126.641 41.1727 127.536C40.9851 128.435 40.8179 129.345 40.6049 130.24C40.3616 131.286 40.1234 132.333 39.8293 133.364C39.5201 134.451 39.1906 135.532 38.7901 136.589C38.7344 136.736 38.6381 136.882 38.6178 137.024C38.5874 137.246 38.4758 137.428 38.4353 137.63C38.3998 137.827 38.2781 137.969 38.2122 138.146C38.1058 138.429 38.05 138.722 37.9537 139.005C37.8827 139.217 37.7357 139.389 37.6952 139.607C37.6293 139.996 37.4316 140.335 37.2896 140.694C37.021 141.361 36.732 142.018 36.4329 142.675C36.3265 142.908 36.3113 143.186 36.1085 143.378C36.0223 143.388 35.9615 143.433 35.9057 143.494C35.2416 144.202 34.4508 144.753 33.7006 145.359C33.0923 145.85 32.4181 146.234 31.683 146.512C31.5715 146.552 31.465 146.618 31.3586 146.673C31.2065 146.643 31.0899 146.739 30.9581 146.775C30.4258 146.911 29.8834 147.002 29.3461 147.144C29.1636 147.189 28.9811 147.285 28.7884 147.27C28.2511 147.235 27.729 147.376 27.1967 147.422C26.4616 147.482 25.7266 147.513 24.9916 147.518C24.4289 147.518 23.8611 147.492 23.2984 147.583C22.9892 147.634 22.6749 147.629 22.3606 147.619C21.1896 147.588 20.0186 147.518 18.8476 147.508C18.4015 147.508 17.9554 147.376 17.5042 147.371C17.484 147.371 17.4586 147.371 17.4434 147.361C17.2812 147.255 17.0936 147.27 16.9162 147.28C16.5461 147.305 16.1913 147.199 15.8466 147.118C15.5272 147.043 15.1977 146.946 14.8834 146.825C14.7111 146.759 14.5184 146.653 14.3106 146.689C13.4589 146.416 12.6986 145.971 11.9686 145.45C11.1119 144.839 10.3008 144.181 9.54546 143.454C9.45928 143.393 9.38831 143.317 9.36296 143.221C9.20582 142.63 8.89152 142.104 8.6482 141.548C8.36432 140.901 8.08044 140.249 7.83204 139.587C7.61406 139.01 7.38595 138.434 7.19331 137.853C7.05137 137.428 6.85874 137.019 6.75229 136.579C6.67625 136.26 6.63569 135.932 6.40757 135.669C6.35181 135.608 6.34167 135.502 6.32647 135.416C6.31126 135.315 6.28084 135.219 6.24536 135.128C5.98682 134.451 5.79419 133.753 5.59649 133.061C5.39372 132.348 5.22643 131.62 5.03887 130.902C4.80061 129.997 4.64853 129.077 4.44069 128.172C4.36972 127.864 4.34945 127.551 4.26834 127.247C4.18723 126.939 4.14667 126.621 4.07571 126.312C4.01487 126.054 3.96418 125.787 3.91349 125.524C3.83745 125.145 3.73099 124.771 3.69044 124.381C3.68537 124.311 3.67016 124.24 3.64482 124.174C3.55357 123.886 3.53329 123.588 3.4826 123.295C3.42177 122.941 3.30517 122.597 3.32038 122.228C3.32038 122.198 3.31024 122.167 3.30011 122.142C3.17337 121.824 3.18351 121.48 3.11761 121.151C3.04664 120.802 2.98074 120.444 2.93005 120.09C2.89963 119.857 2.89456 119.604 2.81345 119.382C2.69179 119.069 2.69686 118.735 2.6411 118.417C2.54478 117.891 2.46874 117.355 2.3927 116.824C2.3116 116.273 2.22035 115.722 2.14938 115.171C2.09869 114.767 2.00744 114.362 1.99223 113.953C1.98716 113.801 1.95675 113.655 1.93647 113.503C1.87564 113.063 1.81481 112.624 1.75904 112.184C1.683 111.582 1.6019 110.986 1.54613 110.384C1.49544 109.823 1.39406 109.262 1.38392 108.696C1.38392 108.433 1.3535 108.17 1.31802 107.912C1.27746 107.629 1.26225 107.351 1.25718 107.068C1.25718 106.937 1.25719 106.805 1.23691 106.674C1.12031 105.845 1.08483 105.006 1.02907 104.172C0.968236 103.247 0.892197 102.322 0.836435 101.397C0.821227 101.103 0.765465 100.815 0.775603 100.522C0.785742 100.128 0.745188 99.7335 0.709703 99.3443C0.674218 98.9804 0.648871 98.6215 0.653941 98.2575C0.65901 97.8936 0.638733 97.5296 0.593109 97.1707C0.547486 96.8371 0.537347 96.5085 0.532278 96.1749C0.532278 95.8412 0.532278 95.5076 0.491724 95.1791C0.364992 94.0316 0.456239 92.8791 0.354853 91.7316C0.324437 91.398 0.314299 91.0644 0.309229 90.7358C0.294022 90.1292 0.309229 89.5226 0.278814 88.9211C0.253467 88.2943 0.202775 87.6725 0.187567 87.0457C0.152082 85.4483 0.172359 83.856 0.157151 82.2587C0.157151 82.0767 0.141943 81.8947 0.116597 81.7178C0.101389 81.5965 0.0405576 81.6875 -0.00506592 81.7077H3.36301e-06Z"
            fill="#545454" stroke="#a8a8a8" stroke-width="4" clip-path="url(#clip-path)" shape-rendering="crispEdges" />
        <path
            d="M10.7469 10.5092C10.6708 10.2868 10.7975 10.0998 10.8837 9.91781C11.0916 9.47803 11.34 9.05848 11.5275 8.60859C11.7151 8.16376 11.9635 7.75936 12.1916 7.34486C12.4603 6.85959 12.7188 6.36926 13.0432 5.91432C13.2055 5.68179 13.3423 5.41894 13.5045 5.18641C13.7175 4.87806 13.9608 4.58488 14.1788 4.28158C14.5437 3.78114 14.9493 3.32115 15.4106 2.91675C15.7147 2.6539 15.9986 2.35566 16.3585 2.15852C16.541 2.05742 16.6779 1.89566 16.8553 1.7794C17.6766 1.2638 18.5333 0.829074 19.4457 0.505559C19.9273 0.338747 20.414 0.187099 20.926 0.141605C21.0679 0.12644 21.1389 -0.0504816 21.296 0.0101774H23.1159C23.1666 0.0708363 23.2173 0.13655 23.3085 0.116331C24.3781 0.278088 25.3768 0.662261 26.3349 1.14248C27.7847 1.87039 29.0064 2.87631 30.0203 4.13499C30.8161 5.12575 31.4954 6.19234 32.124 7.29937C32.6208 8.16881 33.0618 9.06353 33.5079 9.95825C33.5738 10.0897 33.6853 10.2211 33.5738 10.3778C33.4217 10.3677 33.2849 10.3475 33.1581 10.2363C33.0618 10.1503 32.9351 10.0998 32.8185 10.0442C32.4941 9.88748 32.1899 9.6954 31.906 9.47803C31.7489 9.35672 31.5664 9.27078 31.394 9.15957C30.8871 8.83101 30.3498 8.55804 29.8023 8.31035C29.6249 8.22947 29.4829 8.09299 29.3055 8.03233C28.8087 7.85541 28.3068 7.68859 27.7948 7.55717C27.4501 7.46618 27.0953 7.40046 26.7506 7.32464C26.4971 7.26398 26.2284 7.25893 25.9699 7.23365C25.6657 7.20838 25.3667 7.17805 25.0625 7.17805C23.2325 7.17805 21.4025 7.13761 19.5725 7.19827C18.6347 7.2286 17.6968 7.30948 16.7793 7.51673C15.6945 7.75936 14.6857 8.18903 13.7327 8.76024C12.8709 9.28089 12.0142 9.81671 11.1625 10.3525C11.0307 10.4334 10.8989 10.489 10.7469 10.5042V10.5092ZM22.1629 5.92443C22.5684 5.92443 22.979 5.92443 23.3846 5.92948C23.6279 5.93454 23.8712 5.93959 24.1095 5.9497C24.6823 5.98003 25.2602 5.92443 25.8381 6.00025C26.3501 6.07102 26.8621 6.10641 27.369 6.21256C27.516 6.24289 27.663 6.28838 27.8151 6.3086C27.9621 6.32882 28.1142 6.30355 28.1852 6.16201C28.246 6.04575 28.1142 5.96487 28.0483 5.87893C27.5465 5.2218 26.9077 4.71125 26.2589 4.21081C25.1537 3.36159 23.8915 2.92181 22.5127 2.81566C21.6864 2.74994 20.8803 2.88642 20.0946 3.14422C18.7766 3.57389 17.6816 4.34729 16.7387 5.34817C16.5309 5.57058 16.3129 5.77784 16.1406 6.03058C16.0443 6.17717 16.0645 6.23783 16.2217 6.30355C16.4092 6.38443 16.6019 6.33893 16.7894 6.30355C17.8591 6.08113 18.9439 5.96992 20.0388 5.96487C20.6979 5.95981 21.3518 5.96487 22.0108 5.92948C22.0615 5.95476 22.1122 5.9497 22.1679 5.92948L22.1629 5.92443Z"
            fill="#a8a8a8" shape-rendering="crispEdges" />
        <path
            d="M36.1034 143.393C36.1896 143.453 36.2149 143.519 36.1592 143.62C35.9361 144.08 35.7232 144.545 35.4545 144.985C35.3836 145.101 35.3481 145.218 35.3582 145.354C35.3785 145.809 35.2771 146.244 35.1352 146.673C35.1149 146.729 35.12 146.795 35.1149 146.85C35.0997 146.977 35.0084 147.068 34.9679 147.179C34.9071 147.341 34.76 147.255 34.6536 147.29C34.3139 147.401 33.9794 147.477 33.7766 147.846C33.4116 148.498 32.9706 149.105 32.4991 149.681C31.9415 150.364 31.318 150.985 30.4917 151.344C30.1876 151.476 29.8682 151.562 29.5539 151.663C29.2954 151.749 29.0318 151.794 28.7732 151.845C28.4437 151.91 28.1091 152.017 27.7644 152.011C27.5312 152.011 27.2981 152.011 27.0699 152.057C26.6897 152.138 26.3096 152.133 25.9243 152.133C23.5924 152.133 21.2555 152.133 18.9236 152.133C18.7006 152.133 18.4826 152.133 18.2595 152.077C18.0314 152.022 17.8033 152.001 17.5701 152.011C17.4484 152.017 17.3319 152.011 17.2203 151.951C17.1646 151.915 17.0885 151.905 17.0176 151.895C16.3231 151.804 15.6539 151.622 15.0253 151.299C14.5438 151.046 14.1027 150.733 13.7225 150.343C13.464 150.075 13.2359 149.777 13.0128 149.479C12.6529 148.994 12.2981 148.503 11.9736 147.993C11.9229 147.917 11.8722 147.841 11.8317 147.76C11.7962 147.695 11.7556 147.629 11.6796 147.624C11.4363 147.604 11.2436 147.432 11.0054 147.411C10.8635 147.401 10.7773 147.351 10.7266 147.224C10.6151 146.957 10.5137 146.684 10.4883 146.39C10.4731 146.208 10.3362 146.072 10.3565 145.88C10.3768 145.713 10.3971 145.526 10.3464 145.369C10.2754 145.157 10.1335 144.97 10.027 144.768C9.86481 144.454 9.6671 144.151 9.55558 143.812C9.51502 143.691 9.50489 143.58 9.54037 143.459C10.2957 144.191 11.1118 144.844 11.9635 145.455C12.6884 145.976 13.4488 146.421 14.3055 146.694C14.346 146.805 14.3714 146.921 14.4373 147.027C14.635 147.341 14.8074 147.669 15.0253 147.973C15.3954 148.488 15.882 148.842 16.4498 149.1C16.7286 149.226 17.0226 149.317 17.3319 149.378C17.5701 149.423 17.7982 149.464 18.0416 149.474C18.1531 149.479 18.2646 149.499 18.366 149.529C18.5536 149.59 18.7411 149.595 18.9337 149.59C19.4407 149.57 19.9425 149.62 20.4444 149.671C20.6167 149.686 20.7891 149.701 20.9564 149.706C21.8435 149.706 22.7357 149.717 23.6228 149.711C24.6012 149.711 25.5745 149.575 26.5579 149.58C26.9432 149.58 27.3335 149.449 27.7289 149.464C27.7594 149.464 27.7898 149.454 27.8151 149.444C28.0939 149.327 28.4032 149.332 28.6921 149.251C29.1281 149.13 29.5336 148.958 29.8783 148.685C30.4765 148.205 30.9429 147.614 31.2774 146.921C31.3129 146.85 31.3433 146.775 31.3383 146.689C31.4447 146.633 31.5512 146.567 31.6627 146.527C32.3978 146.249 33.0669 145.865 33.6803 145.374C34.4305 144.773 35.2213 144.217 35.8854 143.509C35.9412 143.448 36.0071 143.403 36.0882 143.393H36.1034Z"
            fill="#a8a8a8" shape-rendering="crispEdges" />
        <rect x="21" y="45" width="3" height="8" rx="1.5" fill="#ffffff" />
    </g>
    <defs>
        <clipPath id="clip-path">
            <path
                d="M3.36301e-06 81.7077V69.6467C0.126735 69.6062 0.116597 69.5001 0.126735 69.399C0.197705 68.8227 0.16729 68.2515 0.16222 67.6753C0.16222 66.3711 0.223052 65.072 0.283883 63.7729C0.344714 62.4535 0.395407 61.1342 0.496793 59.8149C0.542416 59.1931 0.506931 58.5612 0.618456 57.9445C0.648871 57.7878 0.638733 57.621 0.653941 57.4643C0.714772 56.7617 0.760395 56.054 0.836435 55.3564C0.902335 54.7347 0.93782 54.1129 1.00372 53.4861C1.06455 52.8947 1.12031 52.3033 1.17608 51.7068C1.22677 51.1962 1.25718 50.6806 1.32815 50.1701C1.39912 49.6494 1.44982 49.1288 1.4853 48.6031C1.52586 48.0268 1.61203 47.4607 1.65259 46.8844C1.683 46.4648 1.72863 46.0402 1.77932 45.6207C1.88071 44.8018 1.99223 43.9778 2.09869 43.1589C2.18993 42.4714 2.28625 41.7789 2.38257 41.0915C2.48902 40.3231 2.60561 39.5548 2.71207 38.7864C2.76276 38.4376 2.78811 38.0787 2.86922 37.7451C2.95032 37.4064 2.95539 37.0576 3.06185 36.719C3.19872 36.2792 3.20886 35.8141 3.30011 35.3592C3.38628 34.9295 3.4826 34.4998 3.53836 34.0702C3.58905 33.686 3.73099 33.3119 3.70058 32.9126C3.70058 32.8924 3.70058 32.8722 3.70565 32.8519C3.89321 32.3869 3.9287 31.8814 4.01994 31.3961C4.11626 30.9058 4.22778 30.4155 4.31903 29.9201C4.35452 29.7128 4.37986 29.4854 4.46097 29.2832C4.56236 29.0203 4.56743 28.7372 4.64853 28.4693C4.7043 28.2823 4.7195 28.0801 4.77527 27.888C4.89693 27.4583 5.02366 27.0287 5.11998 26.594C5.20616 26.2047 5.32275 25.8206 5.39879 25.4313C5.44948 25.1735 5.58128 24.9461 5.62184 24.6883C5.66746 24.39 5.75871 24.1019 5.86009 23.8239C6.08314 23.192 6.24536 22.545 6.44813 21.9081C6.70666 21.0942 6.96013 20.2753 7.21866 19.4615C7.30484 19.1936 7.46705 18.956 7.52282 18.683C7.57858 18.41 7.68503 18.1522 7.77121 17.8894C7.89794 17.4951 8.01961 17.0958 8.18689 16.7116C8.37952 16.2617 8.55188 15.8068 8.71917 15.3468C8.88645 14.8767 9.08922 14.4217 9.26158 13.9516C9.46435 13.3855 9.74316 12.8395 9.97128 12.2784C10.2146 11.6769 10.4934 11.0905 10.7469 10.4941C10.899 10.4789 11.0308 10.4233 11.1626 10.3424C12.0193 9.80658 12.8709 9.27076 13.7327 8.7501C14.6806 8.1789 15.6894 7.74923 16.7793 7.5066C17.7019 7.29934 18.6347 7.21847 19.5725 7.18814C21.4025 7.12748 23.2325 7.16286 25.0625 7.16792C25.3667 7.16792 25.6658 7.19825 25.9699 7.22352C26.2335 7.24374 26.4971 7.25385 26.7506 7.31451C27.1004 7.39539 27.4502 7.4611 27.7949 7.54703C28.3069 7.68352 28.8087 7.84527 29.3055 8.0222C29.4829 8.08791 29.6249 8.22439 29.8023 8.30022C30.3498 8.54791 30.8871 8.82087 31.3941 9.14944C31.5613 9.26065 31.7438 9.34658 31.9061 9.4679C32.195 9.68526 32.4941 9.87735 32.8185 10.0341C32.9351 10.0897 33.0669 10.1402 33.1582 10.2261C33.2798 10.3373 33.4218 10.3576 33.5739 10.3677C33.7107 10.6912 33.8375 11.0198 33.9946 11.3382C34.4103 12.2026 34.7803 13.0822 35.1453 13.9718C35.6928 15.3063 36.2099 16.6509 36.7067 18.0057C36.9956 18.7993 37.2694 19.598 37.5431 20.3966C37.9081 21.4632 38.2122 22.55 38.5722 23.6217C38.8358 24.4052 39.0284 25.2089 39.2616 25.9975C39.3934 26.4373 39.4694 26.8973 39.5962 27.337C40.0017 28.7423 40.2957 30.1728 40.5999 31.5983C40.7215 32.1594 40.8077 32.7256 40.9192 33.2867C41.0865 34.1056 41.2335 34.9245 41.4059 35.7434C41.558 36.4713 41.6746 37.2042 41.8013 37.9372C41.8773 38.3719 41.9635 38.8117 42.0294 39.2464C42.1815 40.2321 42.3336 41.2178 42.4755 42.2086C42.6377 43.346 42.7999 44.4833 42.947 45.6257C43.0382 46.3334 43.1092 47.0462 43.1903 47.7589C43.246 48.2593 43.3271 48.7598 43.3576 49.2602C43.388 49.7657 43.464 50.2611 43.5198 50.7615C43.5806 51.3529 43.6566 51.9444 43.7175 52.5358C43.8087 53.4608 43.905 54.3808 43.9963 55.3059C44.0926 56.3118 44.1687 57.3127 44.2903 58.3186C44.3106 58.4905 44.341 58.6623 44.341 58.8292C44.3359 59.6177 44.4424 60.4012 44.4931 61.1847C44.5387 61.948 44.5742 62.7164 44.6452 63.4797C44.7313 64.3946 44.6908 65.3146 44.7567 66.2296C44.8479 67.4478 44.8327 68.6711 44.8783 69.8893C44.9341 71.2491 44.9595 72.6139 44.9544 73.9787C44.9544 75.1919 44.924 76.4 44.9696 77.6132C45.0304 79.1095 44.9797 80.6007 44.9544 82.0969C44.9088 84.3666 44.9747 86.6413 44.9037 88.911C44.8581 90.3718 44.8175 91.8378 44.7871 93.2986C44.7567 94.6028 44.706 95.9019 44.6452 97.201C44.6147 97.8379 44.5995 98.4698 44.5742 99.1067C44.5387 100.012 44.4677 100.921 44.412 101.826C44.3917 102.14 44.3461 102.448 44.3511 102.761C44.3511 103.611 44.2548 104.455 44.2041 105.299C44.1585 106.062 44.1281 106.831 44.0368 107.594C43.9811 108.064 44.0064 108.539 43.9456 109.014C43.8696 109.616 43.8138 110.217 43.753 110.819C43.6668 111.633 43.5806 112.442 43.4843 113.255C43.3626 114.251 43.2004 115.247 43.0635 116.243C42.9368 117.158 42.8152 118.073 42.658 118.978C42.5161 119.796 42.4197 120.626 42.2727 121.439C42.07 122.577 41.9078 123.714 41.6847 124.846C41.5073 125.741 41.3603 126.641 41.1727 127.536C40.9851 128.435 40.8179 129.345 40.6049 130.24C40.3616 131.286 40.1234 132.333 39.8293 133.364C39.5201 134.451 39.1906 135.532 38.7901 136.589C38.7344 136.736 38.6381 136.882 38.6178 137.024C38.5874 137.246 38.4758 137.428 38.4353 137.63C38.3998 137.827 38.2781 137.969 38.2122 138.146C38.1058 138.429 38.05 138.722 37.9537 139.005C37.8827 139.217 37.7357 139.389 37.6952 139.607C37.6293 139.996 37.4316 140.335 37.2896 140.694C37.021 141.361 36.732 142.018 36.4329 142.675C36.3265 142.908 36.3113 143.186 36.1085 143.378C36.0223 143.388 35.9615 143.433 35.9057 143.494C35.2416 144.202 34.4508 144.753 33.7006 145.359C33.0923 145.85 32.4181 146.234 31.683 146.512C31.5715 146.552 31.465 146.618 31.3586 146.673C31.2065 146.643 31.0899 146.739 30.9581 146.775C30.4258 146.911 29.8834 147.002 29.3461 147.144C29.1636 147.189 28.9811 147.285 28.7884 147.27C28.2511 147.235 27.729 147.376 27.1967 147.422C26.4616 147.482 25.7266 147.513 24.9916 147.518C24.4289 147.518 23.8611 147.492 23.2984 147.583C22.9892 147.634 22.6749 147.629 22.3606 147.619C21.1896 147.588 20.0186 147.518 18.8476 147.508C18.4015 147.508 17.9554 147.376 17.5042 147.371C17.484 147.371 17.4586 147.371 17.4434 147.361C17.2812 147.255 17.0936 147.27 16.9162 147.28C16.5461 147.305 16.1913 147.199 15.8466 147.118C15.5272 147.043 15.1977 146.946 14.8834 146.825C14.7111 146.759 14.5184 146.653 14.3106 146.689C13.4589 146.416 12.6986 145.971 11.9686 145.45C11.1119 144.839 10.3008 144.181 9.54546 143.454C9.45928 143.393 9.38831 143.317 9.36296 143.221C9.20582 142.63 8.89152 142.104 8.6482 141.548C8.36432 140.901 8.08044 140.249 7.83204 139.587C7.61406 139.01 7.38595 138.434 7.19331 137.853C7.05137 137.428 6.85874 137.019 6.75229 136.579C6.67625 136.26 6.63569 135.932 6.40757 135.669C6.35181 135.608 6.34167 135.502 6.32647 135.416C6.31126 135.315 6.28084 135.219 6.24536 135.128C5.98682 134.451 5.79419 133.753 5.59649 133.061C5.39372 132.348 5.22643 131.62 5.03887 130.902C4.80061 129.997 4.64853 129.077 4.44069 128.172C4.36972 127.864 4.34945 127.551 4.26834 127.247C4.18723 126.939 4.14667 126.621 4.07571 126.312C4.01487 126.054 3.96418 125.787 3.91349 125.524C3.83745 125.145 3.73099 124.771 3.69044 124.381C3.68537 124.311 3.67016 124.24 3.64482 124.174C3.55357 123.886 3.53329 123.588 3.4826 123.295C3.42177 122.941 3.30517 122.597 3.32038 122.228C3.32038 122.198 3.31024 122.167 3.30011 122.142C3.17337 121.824 3.18351 121.48 3.11761 121.151C3.04664 120.802 2.98074 120.444 2.93005 120.09C2.89963 119.857 2.89456 119.604 2.81345 119.382C2.69179 119.069 2.69686 118.735 2.6411 118.417C2.54478 117.891 2.46874 117.355 2.3927 116.824C2.3116 116.273 2.22035 115.722 2.14938 115.171C2.09869 114.767 2.00744 114.362 1.99223 113.953C1.98716 113.801 1.95675 113.655 1.93647 113.503C1.87564 113.063 1.81481 112.624 1.75904 112.184C1.683 111.582 1.6019 110.986 1.54613 110.384C1.49544 109.823 1.39406 109.262 1.38392 108.696C1.38392 108.433 1.3535 108.17 1.31802 107.912C1.27746 107.629 1.26225 107.351 1.25718 107.068C1.25718 106.937 1.25719 106.805 1.23691 106.674C1.12031 105.845 1.08483 105.006 1.02907 104.172C0.968236 103.247 0.892197 102.322 0.836435 101.397C0.821227 101.103 0.765465 100.815 0.775603 100.522C0.785742 100.128 0.745188 99.7335 0.709703 99.3443C0.674218 98.9804 0.648871 98.6215 0.653941 98.2575C0.65901 97.8936 0.638733 97.5296 0.593109 97.1707C0.547486 96.8371 0.537347 96.5085 0.532278 96.1749C0.532278 95.8412 0.532278 95.5076 0.491724 95.1791C0.364992 94.0316 0.456239 92.8791 0.354853 91.7316C0.324437 91.398 0.314299 91.0644 0.309229 90.7358C0.294022 90.1292 0.309229 89.5226 0.278814 88.9211C0.253467 88.2943 0.202775 87.6725 0.187567 87.0457C0.152082 85.4483 0.172359 83.856 0.157151 82.2587C0.157151 82.0767 0.141943 81.8947 0.116597 81.7178C0.101389 81.5965 0.0405576 81.6875 -0.00506592 81.7077H3.36301e-06Z" />
        </clipPath>
    </defs>
</svg>