<svg width="8" height="14" viewBox="0 0 8 14" fill="none" xmlns="http://www.w3.org/2000/svg"
    shape-rendering="crispEdges">
    <rect width="100%" height="100%" fill="black" />
    <path fill-rule="evenodd" clip-rule="evenodd" d="M6 1L2 1L2 0L6 -2.75339e-08L6 1Z" fill="white" />
    <path
        d="M2 1L1.45281e-08 1L4.35842e-08 3L2 3L2 1ZM6 1L6 3L8 3L8 1L6 1ZM2 0L2 -2L-2.90562e-08 -2L0 1.3767e-08L2 0ZM6 -2.75339e-08L8 -4.13009e-08L8 -2L6 -2L6 -2.75339e-08ZM2 3L6 3L6 -1L2 -1L2 3ZM0 1.3767e-08L1.45281e-08 1L4 1L4 -1.3767e-08L0 1.3767e-08ZM6 -2L2 -2L2 2L6 2L6 -2ZM8 1L8 -4.13009e-08L4 -1.3767e-08L4 1L8 1Z"
        fill="white" clip-path="url(#clip-path-top)" />
    <path fill-rule="evenodd" clip-rule="evenodd"
        d="M0 12C0 13.1046 0.89543 14 2 14H6C7.10457 14 8 13.1046 8 12L8 3C8 1.89543 7.10457 1 6 1H2C0.89543 1 0 1.89543 0 3V12ZM1 12C1 12.5523 1.44772 13 2 13H6C6.55229 13 7 12.5523 7 12L7 3C7 2.44772 6.55228 2 6 2L2 2C1.44771 2 1 2.44771 1 3L1 12Z"
        fill="white" />
    <path
        d="M8 12L10 12L10 12L8 12ZM8 3L6 3L6 3L8 3ZM1 12L-1 12L-1 12L1 12ZM7 12L9 12L9 12L7 12ZM7 3L5 3L5 3L7 3ZM6 2L6 4L6 4L6 2ZM2 2L2 -5.96046e-08L2 -5.96046e-08L2 2ZM1 3L-1 3L-1 3L1 3ZM2 12H2H-2C-2 14.2091 -0.20914 16 2 16V12ZM6 12H2V16H6V12ZM6 12V16C8.20914 16 10 14.2091 10 12H6ZM6 3L6 12L10 12L10 3L6 3ZM6 3L6 3H10C10 0.790861 8.20914 -1 6 -1V3ZM2 3H6V-1H2V3ZM2 3L2 3V-1C-0.20914 -1 -2 0.790862 -2 3H2ZM2 12V3H-2V12H2ZM2 11C2.55229 11 3 11.4477 3 12L-1 12C-1 13.6569 0.343146 15 2 15V11ZM6 11H2V15H6V11ZM5 12C5 11.4477 5.44772 11 6 11V15C7.65685 15 9 13.6569 9 12H5ZM5 3L5 12L9 12L9 3L5 3ZM6 4C5.44772 4 5 3.55229 5 3H9C9 1.34314 7.65685 -3.57628e-07 6 -1.78814e-07L6 4ZM2 4L6 4L6 -1.78814e-07L2 -5.96046e-08L2 4ZM3 3C3 3.55229 2.55228 4 2 4L2 -5.96046e-08C0.343146 1.19209e-07 -1 1.34314 -1 3H3ZM3 12L3 3L-1 3L-1 12L3 12Z"
        fill="white" clip-path="url(#clip-path-main)" />
    <defs>
        <clipPath id="clip-path-top">
            <path fill-rule="evenodd" clip-rule="evenodd" d="M6 1L2 1L2 0L6 -2.75339e-08L6 1Z" />
        </clipPath>
        <clipPath id="clip-path-main">
            <path fill-rule="evenodd" clip-rule="evenodd" d="M6 1L2 1L2 0L6 -2.75339e-08L6 1Z" />
        </clipPath>
    </defs>
</svg>