<svg width="24" height="23" viewBox="0 0 24 23" fill="none" xmlns="http://www.w3.org/2000/svg"
    shape-rendering="crispEdges">
    <rect width="100%" height="100%" fill="black" />
    <path
        d="M6.15067 14.2536C7.22953 15.3324 8.66795 15.9317 10.2264 15.9317C11.7547 15.9317 13.1933 15.3324 14.302 14.2536L15.5607 12.9949C15.9203 12.6353 15.9203 12.0659 15.5607 11.7362C15.2011 11.3767 14.6317 11.3767 14.302 11.7362L13.0434 12.9949C12.2942 13.7441 11.3052 14.1637 10.2564 14.1637C9.20743 14.1637 8.2187 13.7441 7.46949 12.9949L3.99312 9.54844C2.46479 8.02012 2.46479 5.50262 3.99312 3.94438C5.52145 2.41605 8.03894 2.41605 9.56721 3.94438L10.676 5.05315C11.0355 5.41271 11.6049 5.41271 11.9347 5.05315C12.2942 4.6936 12.2942 4.12419 11.9347 3.79449L10.8259 2.68571C8.57826 0.438095 4.92213 0.438095 2.67452 2.68571C0.426896 4.93333 0.456811 8.55949 2.67452 10.8071L6.15067 14.2536Z"
        fill="white" stroke="white" />
    <path
        d="M8.48823 9.78834C8.12868 10.1479 8.12868 10.7173 8.48823 11.047C8.84779 11.4066 9.41719 11.4066 9.7469 11.047L11.0056 9.78834C11.7548 9.03913 12.7437 8.61957 13.7925 8.61957C14.8415 8.61957 15.8302 9.03912 16.5794 9.78834L20.0257 13.2346C21.554 14.7629 21.554 17.2804 20.0257 18.8386C18.4974 20.367 15.9799 20.367 14.4216 18.8386L13.3129 17.7299C12.9533 17.3703 12.3839 17.3703 12.0542 17.7299C11.6946 18.0894 11.6946 18.6588 12.0542 18.9885L13.163 20.0973C14.2717 21.2061 15.7701 21.7755 17.2386 21.7755C18.7071 21.7755 20.1755 21.206 21.3143 20.0973C23.5619 17.8497 23.5619 14.1936 21.3143 11.9459L17.8982 8.4997C16.8193 7.42085 15.3809 6.82153 13.8225 6.82153C12.2941 6.82153 10.8556 7.42085 9.74679 8.4997L8.48823 9.78834Z"
        fill="white" stroke="white" />
</svg>