<svg width="34" height="34" viewBox="0 0 34 34" fill="none" xmlns="http://www.w3.org/2000/svg"
    shape-rendering="crispEdges">
    <rect width="100%" height="100%" fill="black" />
    <path
        d="M34 17C34 26.3888 26.3888 34 17 34C7.61116 34 0 26.3888 0 17C0 7.61116 7.61116 0 17 0C26.3888 0 34 7.61116 34 17Z"
        fill="white" />
    <path
        d="M11.1507 20.2536C12.2295 21.3324 13.668 21.9317 15.2264 21.9317C16.7547 21.9317 18.1933 21.3324 19.302 20.2536L20.5607 18.9949C20.9203 18.6353 20.9203 18.0659 20.5607 17.7362C20.2011 17.3767 19.6317 17.3767 19.302 17.7362L18.0434 18.9949C17.2942 19.7441 16.3052 20.1637 15.2564 20.1637C14.2074 20.1637 13.2187 19.7441 12.4695 18.9949L8.99312 15.5484C7.46479 14.0201 7.46479 11.5026 8.99312 9.94438C10.5214 8.41605 13.0389 8.41605 14.5672 9.94438L15.676 11.0532C16.0355 11.4127 16.6049 11.4127 16.9347 11.0532C17.2942 10.6936 17.2942 10.1242 16.9347 9.79449L15.8259 8.68571C13.5783 6.4381 9.92213 6.4381 7.67452 8.68571C5.4269 10.9333 5.45681 14.5595 7.67452 16.8071L11.1507 20.2536Z"
        fill="black" stroke="black" />
    <path
        d="M13.4882 15.7883C13.1287 16.1479 13.1287 16.7173 13.4882 17.047C13.8478 17.4066 14.4172 17.4066 14.7469 17.047L16.0056 15.7883C16.7548 15.0391 17.7437 14.6196 18.7925 14.6196C19.8415 14.6196 20.8302 15.0391 21.5794 15.7883L25.0257 19.2346C26.554 20.7629 26.554 23.2804 25.0257 24.8386C23.4974 26.367 20.9799 26.367 19.4216 24.8386L18.3129 23.7299C17.9533 23.3703 17.3839 23.3703 17.0542 23.7299C16.6946 24.0894 16.6946 24.6588 17.0542 24.9885L18.163 26.0973C19.2717 27.2061 20.7701 27.7755 22.2386 27.7755C23.7071 27.7755 25.1755 27.206 26.3143 26.0973C28.5619 23.8497 28.5619 20.1936 26.3143 17.9459L22.8982 14.4997C21.8193 13.4208 20.3809 12.8215 18.8225 12.8215C17.2941 12.8215 15.8556 13.4208 14.7468 14.4997L13.4882 15.7883Z"
        fill="black" stroke="black" />
</svg>