<?xml version="1.0" encoding="UTF-8"?>
<svg id="Layer_2" data-name="Layer 2" xmlns="http://www.w3.org/2000/svg" viewBox="0 0 302.97 50">
  <defs>
    <style>
      .cls-1 {
        fill: #231f20;
      }
    </style>
  </defs>
  <g id="Layer_1-2" data-name="Layer 1">
    <path class="cls-1" d="m302.97,22.33h-28.15c-.19,0-.35-.15-.37-.34-1.4-13.6-12.31-21.99-27.77-21.99h-23.64v21.95c0,.21-.17.38-.38.38h-30.67c-.21,0-.38-.17-.38-.38V0h-13.86v21.36c0,.53-.43.96-.96.96h-2.09c-.33,0-.64-.15-.85-.4L155.69,0h-11.64v21.95c0,.21-.17.38-.38.38h-30.74c-.21,0-.38-.17-.38-.38V0h-14.14v21.95c0,.21-.17.38-.38.38h-50.1c-.21,0-.38-.17-.38-.38V0h-14.14v21.95c0,.21-.17.38-.38.38H0v5.34h33.04c.21,0,.38.17.38.38v21.95h38v-11.21h-23.86v-10.74c0-.21.17-.38.38-.38h50.1c.21,0,.38.17.38.38v21.95h14.14v-21.95c0-.21.17-.38.38-.38h30.74c.21,0,.38.17.38.38v21.95h13.86v-21.36c0-.53.43-.96.96-.96h2.09c.33,0,.64.15.85.4l18.17,21.93h11.64v-21.95c0-.21.17-.38.38-.38h30.67c.21,0,.38.17.38.38v21.95h23.64c15.46,0,26.38-8.39,27.77-21.99.02-.19.18-.34.37-.34h28.15v-5.34Zm-56.86,16.39h-8.93v-10.66c0-.21.17-.38.38-.38h22.1c.24,0,.42.22.38.45-1.23,6.72-6.51,10.59-13.93,10.59Zm13.55-16.39h-22.1c-.21,0-.38-.17-.38-.38v-10.66h8.93c7.42,0,12.7,3.87,13.93,10.59.04.23-.14.45-.38.45Z"/>
  </g>
</svg>