<svg width="30" height="30" viewBox="0 0 30 30" fill="none" xmlns="http://www.w3.org/2000/svg">
<path fill-rule="evenodd" clip-rule="evenodd" d="M30 15C30 23.2843 23.2843 30 15 30C6.71573 30 0 23.2843 0 15C0 6.71573 6.71573 0 15 0C23.2843 0 30 6.71573 30 15ZM13.2 7.8C13.2 6.80589 14.0058 6 15 6C15.9941 6 16.8 6.80589 16.8 7.8V17.4C16.8 18.3941 15.9941 19.2 15 19.2C14.0058 19.2 13.2 18.3941 13.2 17.4V7.8ZM15 20.4C14.0059 20.4 13.2 21.2059 13.2 22.2C13.2 23.1941 14.0059 24 15 24C15.9941 24 16.8 23.1941 16.8 22.2C16.8 21.2059 15.9941 20.4 15 20.4Z" fill="#E65F5C"/>
</svg>
